<?xml version="1.0" encoding="utf-8"?>
<!-- Generator: Adobe Illustrator 23.0.1, SVG Export Plug-In . SVG Version: 6.00 Build 0)  -->
<svg version="1.1" id="Layer_1" xmlns="http://www.w3.org/2000/svg" xmlns:xlink="http://www.w3.org/1999/xlink" x="0px" y="0px"
	 viewBox="0 0 1977.4 2273.6" style="enable-background:new 0 0 1977.4 2273.6;" xml:space="preserve">
<style type="text/css">
	.st0{fill:#FFFFFF;}
</style>
<path class="st0" d="M992.1,1366.4c114.9-0.3,216.5-92.2,217.6-218.7c-1.5-127.3-105.3-219-220.5-217.9
	c-119.7,1.1-216.7,98.9-216.4,219.7C773.1,1269.4,871.8,1366.7,992.1,1366.4z M981.9,1343.9c-66.9-2.6-137.8-47.3-163.4-105.1
	l13.2-7.7c32.2,56.6,79.6,91.2,145,96.4s118.1-20.3,159.6-72.3l10.8,9.5C1124.9,1300.4,1063.5,1347.2,981.9,1343.9z M998.4,961.9
	c0.1-2.6,0.5-5.2,0.9-8.7c24.4,0,47.1,5.8,68.8,15c36.9,15.7,66,40.8,87.9,74.4c43.3,66.7,38,151.3,2.3,206l-13.3-6.7
	c31.9-58.9,35-118.3,3.3-176.9c-31.7-58.7-83.2-88.6-150-94.4C998.3,967.2,998.2,964.6,998.4,961.9L998.4,961.9z M991.6,1052
	c52.5-0.3,95.3,41.9,95.7,94.4c0,0.2,0,0.3,0,0.5c0.1,52.4-42.1,94.4-94.4,95.2c-45,0.7-95.5-34.2-95.6-94.9
	C897.2,1089,944.2,1052.2,991.6,1052L991.6,1052z M978.1,953.9c0.8,5.2,1.6,10.7,2.5,17c-60.6,6.1-108.5,32.9-140.6,84.2
	c-32,51.1-35.1,105.5-14.4,162.3l-14.4,4.5c-21.5-41.5-23.1-113.9,9.9-171C861.3,981.3,932.4,953.9,978.1,953.9L978.1,953.9z"/>
<path class="st0" d="M1068.3,1909.2c0-38.4-31.7-70-70-69.6c-38.4,0.3-69.2,31.6-68.9,70c0.3,38.4,31.6,69.2,70,68.9
	C1037.5,1978.2,1068.3,1947.3,1068.3,1909.2z"/>
<path class="st0" d="M900.1,1912.3c-0.7-20.1,4.8-40,15.8-56.8c16-24.8,39.5-38.8,68.4-44.7c0-4,0-7.3,0-10.6
	c0.2-25.3-0.1-50.6,0.7-75.9c0.3-8.5-2.4-12.8-9.8-17.1C820,1617.9,664.8,1528.5,509.7,1439c-6.6-3.8-9.3-7.7-9.3-15.5
	c0.1-36-0.6-71.9-1-107.9c-0.5-60.3-0.8-120.6-1.5-180.9c-1.1-97.2-2.4-194.5-3.7-291.8c0.1-2.4,0.4-4.8,0.7-7.2l218.2,122.8
	c1.6-2.4,2.8-4.3,4.2-6.4c11.1,6.9,21.2,13.2,31.4,19.6c1.4,0.9,2.6,2,4.3,3.3c-2.1,3.3-4,6.4-5.9,9.5
	c-43,70.6-57.3,146.6-39.8,227.2c32.6,149.5,174.4,248.9,325.9,229.3c65.1-8.4,121.4-36,168.6-81.8c2.6-2.5,5.2-4.9,8.3-7.8
	l32.2,30.4c-96.5,105-263.4,142-404.8,67.6c-71.6-37.7-123.8-94-155.1-168.6c-38.1-90.8-36-181.9,2.1-272.7
	c-1.9-1.3-3.5-2.5-5.2-3.4c-50.7-28.6-101.5-57.2-152.3-85.8c-0.2-0.1-0.6,0-0.9,0.1c-0.5,0.2-0.9,0.4-1.3,0.7
	c1.7,165.5,3.4,331.1,5.1,496.6l484.5,279.6v115c25.6,4.9,46.8,17.2,63.3,37.8c3.9-2.2,7.4-4,10.8-6
	c181.6-104.8,363.3-209.7,545-314.4c7.5-4.3,10.5-8.7,10.5-17.8c-0.3-174.2-0.4-348.4-0.2-522.6c0-67.6,0.1-135.2-0.1-202.8
	c0-6.5,1.6-10.4,7.7-13.3c9.9-4.7,19.6-9.9,29.1-15.4c50.8-29.2,101.5-58.5,152.2-87.9c1.9-1.1,3.6-2.4,6.5-4.4l-824.8-469v112
	c49.3,15.5,77.7,47.3,80.2,89c1.3,21.5-2.6,41.8-14,60.2c-15.5,25.2-38.5,39.9-67.2,46.2v95.6l486.2,270.1c0,4.5,0,8.2,0,11.8
	c-0.3,35.3-0.9,70.6-1,105.9c-0.7,157.2-1.4,314.4-2.1,471.6c0,2.8-0.5,5.5-0.8,9.4l-219.1-124.1c0.7-2.6,1.2-4.7,1.7-6.9
	l-36.3-23.1c78.3-118.2,58.8-273.6-32.1-368c-43.6-45.3-95.9-75-157.6-86.5c-93.4-17.5-176.5,6.8-250.2,66.3l-30-32.8
	c99.6-89.9,254.5-112.9,383-44.6c65.6,34.9,115.2,85.8,147.1,152.8c45.8,96.4,44.6,194,3.6,292.1l162.1,91.3c0-6.9,0-11.4,0-16
	c0.4-93.6,0.7-187.2,1.1-280.8c0.3-63.6,0.5-127.3,1.3-190.9c0.1-8.3-2.4-13.1-9.8-16c-1.2-0.6-2.4-1.2-3.5-1.9
	c-154.6-85.8-309.1-171.7-463.6-257.5c-3.1-1.7-6.2-3.7-9.3-5.5v-28.5c0-9.3,0-18.7,0-28c0-9.3,0.1-18.7,0-28
	c-0.2-9.2,0.7-18.4-0.6-27.6c-27.1-4.1-48.3-16.8-65.2-36.9c-3.7,2-6.6,3.6-9.4,5.3L382.1,775.5c-6.9,4-13.8,8.2-20.8,11.9
	c-3.7,2-5.4,4.6-5,8.8c0.3,2.6,0,5.3,0,8v717.4c-0.1,2.7-0.1,5.3,0.1,8c0.6,5.1-1.7,7.9-6.1,10.1c-10.7,5.4-21.3,11-31.7,16.9
	c-52.8,30.4-105.6,60.8-158.3,91.3c-2.5,1.4-4.8,3.1-7.4,4.8c9.9,8.3,820.1,476.8,827.4,478.5c0.5-41.6,1.1-83,1.6-124.1
	C928.6,1989.4,901.5,1957.6,900.1,1912.3z M992.5,893.7c134.3,0.1,253.5,107.8,253.2,253.9c-0.3,145.8-118.9,253.3-253.1,252.8
	c-140.3,0-253.8-113.2-253.7-253.3C739,1003.5,856.6,893.5,992.5,893.7z"/>
<path class="st0" d="M326.3,1507.7c-0.2-210.5-0.5-421-0.8-631.5c0-32,0.1-64-0.2-95.9c0-5.7,1.3-9.6,6.8-11.8
	c2.4-1.1,4.8-2.4,7-3.9l554.4-320c3.1-1.8,6.2-3.7,9.4-5.6c-8.6-30.2-7.2-58.7,9.2-85.4s40.8-41.3,71.7-46.8
	c0-37.1,0.1-73.5-0.5-111.4c-4.9,2.8-8,4.5-11.2,6.3c-52.7,30.5-105.4,61.1-158.1,91.7C595.7,420,377.3,546.5,159,673
	c-6.3,3.7-9.6,7.3-9.5,15.3c0.7,53,0.8,105.9,0.8,158.9c0.3,253.8,0.5,507.6,0.7,761.5c0,3.5,0.3,6.9,0.5,11.9l174.8-101.3
	C326.3,1515,326.3,1511.3,326.3,1507.7z"/>
<path class="st0" d="M926.8,405.2c0.1,38,31.3,69.2,69.4,69.2c38.2,0,69.2-30.8,69.6-69c0.3-38.2-31.5-69.9-70-69.7
	C957.7,336,926.7,367.2,926.8,405.2z"/>
<path class="st0" d="M1846.2,1628.6c-0.6-307.4-1.2-614.9-1.8-922.3c0-3.2-0.3-6.4-0.5-11.3l-170,98.5v747.4l-581.4,335.7
	c9.4,30,6.6,58.1-9.4,84.3s-40.3,40.9-71.4,46.6v125.3c4.1-2.3,7.8-4.3,11.5-6.5c251.9-147.6,503.9-295.2,755.8-442.8
	c20.1-11.8,40.1-23.8,60.4-35.2c5.4-3,7.9-6.6,7.1-12.6C1846.1,1633.2,1846.1,1630.9,1846.2,1628.6z"/>
<path class="st0" d="M1961.3,583.1c-83.2-47.7-166.2-95.6-249.2-143.7C1476.3,303.3,1240.5,167.2,1004.6,31c-2.8-1.6-5.8-3-8.5-4.4
	l-973.6,562v9.6c0,368.4-0.1,736.8-0.2,1105.2c0,7.2,2.1,11.2,8.5,14.8c319,183.9,637.9,368,956.6,552.3c6.5,3.8,11.2,4.2,17.9,0.3
	c48.8-28.7,97.9-56.8,146.9-85.1l807.9-466.3c3.4-2,6.8-4.1,10.2-6.2v-9.5c0-368.4,0.1-736.8,0.2-1105.2
	C1970.6,590.6,1967.8,586.8,1961.3,583.1z M1894.1,653.9l-0.5,1000.2c-0.2,2.7-0.2,5.3,0,8c0.8,6.1-1.7,9.6-7.1,12.6
	c-25.5,14.4-50.8,29.3-76.1,44c-266.4,154.4-532.8,308.9-799.1,463.5c-11.8,6.9-19.9,7.3-32,0.4c-289.7-166-579.6-331.6-869.7-496.9
	c-3.7-2.1-7.4-4.3-11.3-6.6v-11.4c0.3-335.4,0.4-670.8,0.5-1006.2c0-8.3,2.2-13,9.6-17.3c294.3-169.4,588.4-338.9,882.5-508.6
	c2.6-1.5,5.2-3,6.9-3.9l896,511.5L1894.1,653.9z"/>
<path class="st0" d="M1994.4,575.7L997.2,0L0,575.7v1151.5l997.2,575.7l997.2-575.7V575.7z M1989.8,1724.3c-2.8,1.8-5.8,3.7-8.9,5.5
	c-325.2,187.7-650.3,375.5-975.4,563.3c-6.8,3.9-11.4,3.6-18-0.1C662.3,2105.1,337.2,1917.4,12,1729.7c-2.9-1.6-5.7-3.4-8.6-5.2
	V577.3c24-13.8,47.6-27.5,71.2-41.1C378.9,360.4,683.3,184.6,987.7,8.8c6.8-3.9,11.5-3.5,18,0.3
	c325.1,187.9,650.2,375.6,975.4,563.3c2.9,1.7,5.6,3.4,8.6,5.3L1989.8,1724.3z"/>
</svg>
